<mxfile host="Electron" agent="Mozilla/5.0 (Windows NT 10.0; Win64; x64) AppleWebKit/537.36 (KHTML, like Gecko) draw.io/24.7.8 Chrome/128.0.6613.36 Electron/32.0.1 Safari/537.36" version="24.7.8">
  <diagram name="Страница — 1" id="aGhA_Hz7aNp3XUtljro_">
    <mxGraphModel dx="2293" dy="1838" grid="1" gridSize="10" guides="1" tooltips="1" connect="1" arrows="1" fold="1" page="1" pageScale="1" pageWidth="1100" pageHeight="850" math="0" shadow="0">
      <root>
        <mxCell id="0" />
        <mxCell id="1" parent="0" />
        <mxCell id="aXbR5dEZh_eKK9XRqnal-1" value="Город" style="shape=ext;margin=3;double=1;whiteSpace=wrap;html=1;align=center;" vertex="1" parent="1">
          <mxGeometry x="980" y="210" width="100" height="40" as="geometry" />
        </mxCell>
        <mxCell id="aXbR5dEZh_eKK9XRqnal-2" value="Улица" style="shape=ext;margin=3;double=1;whiteSpace=wrap;html=1;align=center;" vertex="1" parent="1">
          <mxGeometry x="680" y="210" width="100" height="40" as="geometry" />
        </mxCell>
        <mxCell id="aXbR5dEZh_eKK9XRqnal-3" value="Дом" style="shape=ext;margin=3;double=1;whiteSpace=wrap;html=1;align=center;" vertex="1" parent="1">
          <mxGeometry x="380" y="210" width="100" height="40" as="geometry" />
        </mxCell>
        <mxCell id="aXbR5dEZh_eKK9XRqnal-4" value="Квартира" style="shape=ext;margin=3;double=1;whiteSpace=wrap;html=1;align=center;" vertex="1" parent="1">
          <mxGeometry x="80" y="210" width="100" height="40" as="geometry" />
        </mxCell>
        <mxCell id="aXbR5dEZh_eKK9XRqnal-6" value="Страна" style="whiteSpace=wrap;html=1;align=center;" vertex="1" parent="1">
          <mxGeometry x="1280" y="210" width="100" height="40" as="geometry" />
        </mxCell>
        <mxCell id="aXbR5dEZh_eKK9XRqnal-13" value="Находится" style="shape=rhombus;double=1;perimeter=rhombusPerimeter;whiteSpace=wrap;html=1;align=center;" vertex="1" parent="1">
          <mxGeometry x="1120" y="200" width="120" height="60" as="geometry" />
        </mxCell>
        <mxCell id="aXbR5dEZh_eKK9XRqnal-15" value="Находится" style="shape=rhombus;double=1;perimeter=rhombusPerimeter;whiteSpace=wrap;html=1;align=center;" vertex="1" parent="1">
          <mxGeometry x="220" y="200" width="120" height="60" as="geometry" />
        </mxCell>
        <mxCell id="aXbR5dEZh_eKK9XRqnal-16" value="Находится" style="shape=rhombus;double=1;perimeter=rhombusPerimeter;whiteSpace=wrap;html=1;align=center;" vertex="1" parent="1">
          <mxGeometry x="520" y="200" width="120" height="60" as="geometry" />
        </mxCell>
        <mxCell id="aXbR5dEZh_eKK9XRqnal-17" value="Находится" style="shape=rhombus;double=1;perimeter=rhombusPerimeter;whiteSpace=wrap;html=1;align=center;" vertex="1" parent="1">
          <mxGeometry x="820" y="200" width="120" height="60" as="geometry" />
        </mxCell>
        <mxCell id="aXbR5dEZh_eKK9XRqnal-20" value="" style="shape=link;html=1;rounded=0;exitX=1;exitY=0.5;exitDx=0;exitDy=0;entryX=0;entryY=0.5;entryDx=0;entryDy=0;" edge="1" parent="1" source="aXbR5dEZh_eKK9XRqnal-4" target="aXbR5dEZh_eKK9XRqnal-15">
          <mxGeometry width="100" relative="1" as="geometry">
            <mxPoint x="290" y="170" as="sourcePoint" />
            <mxPoint x="390" y="170" as="targetPoint" />
          </mxGeometry>
        </mxCell>
        <mxCell id="aXbR5dEZh_eKK9XRqnal-21" value="n" style="text;html=1;align=center;verticalAlign=middle;whiteSpace=wrap;rounded=0;" vertex="1" parent="1">
          <mxGeometry x="170" y="200" width="60" height="30" as="geometry" />
        </mxCell>
        <mxCell id="aXbR5dEZh_eKK9XRqnal-22" value="" style="shape=link;html=1;rounded=0;exitX=1;exitY=0.5;exitDx=0;exitDy=0;entryX=0;entryY=0.5;entryDx=0;entryDy=0;" edge="1" parent="1">
          <mxGeometry width="100" relative="1" as="geometry">
            <mxPoint x="480" y="230" as="sourcePoint" />
            <mxPoint x="520" y="230" as="targetPoint" />
          </mxGeometry>
        </mxCell>
        <mxCell id="aXbR5dEZh_eKK9XRqnal-23" value="n" style="text;html=1;align=center;verticalAlign=middle;whiteSpace=wrap;rounded=0;" vertex="1" parent="1">
          <mxGeometry x="470" y="200" width="60" height="30" as="geometry" />
        </mxCell>
        <mxCell id="aXbR5dEZh_eKK9XRqnal-24" value="" style="shape=link;html=1;rounded=0;exitX=1;exitY=0.5;exitDx=0;exitDy=0;entryX=0;entryY=0.5;entryDx=0;entryDy=0;" edge="1" parent="1">
          <mxGeometry width="100" relative="1" as="geometry">
            <mxPoint x="780" y="229.39" as="sourcePoint" />
            <mxPoint x="820" y="229.39" as="targetPoint" />
          </mxGeometry>
        </mxCell>
        <mxCell id="aXbR5dEZh_eKK9XRqnal-25" value="n" style="text;html=1;align=center;verticalAlign=middle;whiteSpace=wrap;rounded=0;" vertex="1" parent="1">
          <mxGeometry x="770" y="199.39" width="60" height="30" as="geometry" />
        </mxCell>
        <mxCell id="aXbR5dEZh_eKK9XRqnal-28" value="" style="shape=link;html=1;rounded=0;exitX=1;exitY=0.5;exitDx=0;exitDy=0;entryX=0;entryY=0.5;entryDx=0;entryDy=0;" edge="1" parent="1">
          <mxGeometry width="100" relative="1" as="geometry">
            <mxPoint x="1080" y="230" as="sourcePoint" />
            <mxPoint x="1120" y="230" as="targetPoint" />
          </mxGeometry>
        </mxCell>
        <mxCell id="aXbR5dEZh_eKK9XRqnal-29" value="n" style="text;html=1;align=center;verticalAlign=middle;whiteSpace=wrap;rounded=0;" vertex="1" parent="1">
          <mxGeometry x="1070" y="200" width="60" height="30" as="geometry" />
        </mxCell>
        <mxCell id="aXbR5dEZh_eKK9XRqnal-30" value="" style="endArrow=none;html=1;rounded=0;exitX=1;exitY=0.5;exitDx=0;exitDy=0;entryX=0;entryY=0.5;entryDx=0;entryDy=0;" edge="1" parent="1" source="aXbR5dEZh_eKK9XRqnal-15" target="aXbR5dEZh_eKK9XRqnal-3">
          <mxGeometry width="50" height="50" relative="1" as="geometry">
            <mxPoint x="570" y="150" as="sourcePoint" />
            <mxPoint x="620" y="100" as="targetPoint" />
          </mxGeometry>
        </mxCell>
        <mxCell id="aXbR5dEZh_eKK9XRqnal-31" value="1" style="text;html=1;align=center;verticalAlign=middle;whiteSpace=wrap;rounded=0;" vertex="1" parent="1">
          <mxGeometry x="330" y="200" width="60" height="30" as="geometry" />
        </mxCell>
        <mxCell id="aXbR5dEZh_eKK9XRqnal-32" value="" style="endArrow=none;html=1;rounded=0;exitX=1;exitY=0.5;exitDx=0;exitDy=0;entryX=0;entryY=0.5;entryDx=0;entryDy=0;" edge="1" parent="1">
          <mxGeometry width="50" height="50" relative="1" as="geometry">
            <mxPoint x="640" y="230" as="sourcePoint" />
            <mxPoint x="680" y="230" as="targetPoint" />
          </mxGeometry>
        </mxCell>
        <mxCell id="aXbR5dEZh_eKK9XRqnal-33" value="1" style="text;html=1;align=center;verticalAlign=middle;whiteSpace=wrap;rounded=0;" vertex="1" parent="1">
          <mxGeometry x="630" y="200" width="60" height="30" as="geometry" />
        </mxCell>
        <mxCell id="aXbR5dEZh_eKK9XRqnal-34" value="" style="endArrow=none;html=1;rounded=0;exitX=1;exitY=0.5;exitDx=0;exitDy=0;entryX=0;entryY=0.5;entryDx=0;entryDy=0;" edge="1" parent="1">
          <mxGeometry width="50" height="50" relative="1" as="geometry">
            <mxPoint x="940" y="227.95999999999998" as="sourcePoint" />
            <mxPoint x="980" y="227.95999999999998" as="targetPoint" />
          </mxGeometry>
        </mxCell>
        <mxCell id="aXbR5dEZh_eKK9XRqnal-35" value="1" style="text;html=1;align=center;verticalAlign=middle;whiteSpace=wrap;rounded=0;" vertex="1" parent="1">
          <mxGeometry x="930" y="197.95999999999998" width="60" height="30" as="geometry" />
        </mxCell>
        <mxCell id="aXbR5dEZh_eKK9XRqnal-40" value="" style="endArrow=none;html=1;rounded=0;exitX=1;exitY=0.5;exitDx=0;exitDy=0;entryX=0;entryY=0.5;entryDx=0;entryDy=0;" edge="1" parent="1">
          <mxGeometry width="50" height="50" relative="1" as="geometry">
            <mxPoint x="1240" y="230" as="sourcePoint" />
            <mxPoint x="1280" y="230" as="targetPoint" />
          </mxGeometry>
        </mxCell>
        <mxCell id="aXbR5dEZh_eKK9XRqnal-41" value="1" style="text;html=1;align=center;verticalAlign=middle;whiteSpace=wrap;rounded=0;" vertex="1" parent="1">
          <mxGeometry x="1230" y="200" width="60" height="30" as="geometry" />
        </mxCell>
        <mxCell id="aXbR5dEZh_eKK9XRqnal-43" value="&lt;p class=&quot;MsoNormal&quot;&gt;Квартиры (например, кв. 112) расположены в домах (например,&lt;br&gt;дом 4), дома относятся к улицам (например, ул. Летняя), улицы – к городам&lt;br&gt;(например, Солнечный город ), города – к странам (например, страна Коротышек).&lt;/p&gt;" style="text;html=1;align=center;verticalAlign=middle;whiteSpace=wrap;rounded=0;" vertex="1" parent="1">
          <mxGeometry y="140" width="660" height="30" as="geometry" />
        </mxCell>
        <mxCell id="aXbR5dEZh_eKK9XRqnal-44" value="&lt;p class=&quot;MsoNormal&quot;&gt;В каждом матче участвуют две команды, а судит каждый матч&lt;br&gt;один судья.&lt;/p&gt;" style="text;html=1;align=center;verticalAlign=middle;whiteSpace=wrap;rounded=0;" vertex="1" parent="1">
          <mxGeometry x="30" y="340" width="490" height="30" as="geometry" />
        </mxCell>
        <mxCell id="aXbR5dEZh_eKK9XRqnal-46" value="Команда" style="rounded=1;arcSize=10;whiteSpace=wrap;html=1;align=center;" vertex="1" parent="1">
          <mxGeometry x="100" y="400" width="100" height="40" as="geometry" />
        </mxCell>
        <mxCell id="aXbR5dEZh_eKK9XRqnal-47" value="Судья" style="rounded=1;arcSize=10;whiteSpace=wrap;html=1;align=center;" vertex="1" parent="1">
          <mxGeometry x="450" y="400" width="100" height="40" as="geometry" />
        </mxCell>
        <mxCell id="aXbR5dEZh_eKK9XRqnal-50" value="" style="shape=link;html=1;rounded=0;exitX=0.5;exitY=0;exitDx=0;exitDy=0;entryX=0.5;entryY=1;entryDx=0;entryDy=0;" edge="1" parent="1">
          <mxGeometry width="100" relative="1" as="geometry">
            <mxPoint x="330" y="500" as="sourcePoint" />
            <mxPoint x="330" y="450" as="targetPoint" />
          </mxGeometry>
        </mxCell>
        <mxCell id="aXbR5dEZh_eKK9XRqnal-51" value="" style="endArrow=none;html=1;rounded=0;entryX=1;entryY=0.5;entryDx=0;entryDy=0;exitX=0;exitY=0.5;exitDx=0;exitDy=0;" edge="1" parent="1" target="aXbR5dEZh_eKK9XRqnal-46">
          <mxGeometry width="50" height="50" relative="1" as="geometry">
            <mxPoint x="270" y="420" as="sourcePoint" />
            <mxPoint x="520" y="390" as="targetPoint" />
          </mxGeometry>
        </mxCell>
        <mxCell id="aXbR5dEZh_eKK9XRqnal-52" value="" style="endArrow=none;html=1;rounded=0;entryX=1;entryY=0.5;entryDx=0;entryDy=0;exitX=0;exitY=0.5;exitDx=0;exitDy=0;" edge="1" parent="1" source="aXbR5dEZh_eKK9XRqnal-47">
          <mxGeometry width="50" height="50" relative="1" as="geometry">
            <mxPoint x="470" y="440" as="sourcePoint" />
            <mxPoint x="390" y="420" as="targetPoint" />
          </mxGeometry>
        </mxCell>
        <mxCell id="aXbR5dEZh_eKK9XRqnal-53" value="(2;2)" style="text;html=1;align=center;verticalAlign=middle;whiteSpace=wrap;rounded=0;" vertex="1" parent="1">
          <mxGeometry x="200" y="390" width="60" height="30" as="geometry" />
        </mxCell>
        <mxCell id="aXbR5dEZh_eKK9XRqnal-54" value="Происходит" style="shape=rhombus;double=1;perimeter=rhombusPerimeter;whiteSpace=wrap;html=1;align=center;" vertex="1" parent="1">
          <mxGeometry x="270" y="390" width="120" height="60" as="geometry" />
        </mxCell>
        <mxCell id="aXbR5dEZh_eKK9XRqnal-55" value="Матч" style="shape=ext;margin=3;double=1;whiteSpace=wrap;html=1;align=center;" vertex="1" parent="1">
          <mxGeometry x="280" y="500" width="100" height="40" as="geometry" />
        </mxCell>
        <mxCell id="aXbR5dEZh_eKK9XRqnal-56" value="(1;1)" style="text;html=1;align=center;verticalAlign=middle;whiteSpace=wrap;rounded=0;" vertex="1" parent="1">
          <mxGeometry x="320" y="460" width="60" height="30" as="geometry" />
        </mxCell>
        <mxCell id="aXbR5dEZh_eKK9XRqnal-57" value="(1;1)" style="text;html=1;align=center;verticalAlign=middle;whiteSpace=wrap;rounded=0;" vertex="1" parent="1">
          <mxGeometry x="390" y="390" width="60" height="30" as="geometry" />
        </mxCell>
        <mxCell id="aXbR5dEZh_eKK9XRqnal-58" value="&lt;p class=&quot;MsoNormal&quot;&gt;У каждого человека есть отец и мать.&lt;/p&gt;" style="text;html=1;align=center;verticalAlign=middle;whiteSpace=wrap;rounded=0;" vertex="1" parent="1">
          <mxGeometry x="570" y="340" width="490" height="30" as="geometry" />
        </mxCell>
        <mxCell id="aXbR5dEZh_eKK9XRqnal-60" value="Человек" style="rounded=1;arcSize=10;whiteSpace=wrap;html=1;align=center;" vertex="1" parent="1">
          <mxGeometry x="755" y="380" width="100" height="40" as="geometry" />
        </mxCell>
        <mxCell id="aXbR5dEZh_eKK9XRqnal-66" style="edgeStyle=orthogonalEdgeStyle;rounded=0;orthogonalLoop=1;jettySize=auto;html=1;exitX=0.5;exitY=0;exitDx=0;exitDy=0;entryX=0.5;entryY=1;entryDx=0;entryDy=0;" edge="1" parent="1" source="aXbR5dEZh_eKK9XRqnal-61" target="aXbR5dEZh_eKK9XRqnal-64">
          <mxGeometry relative="1" as="geometry" />
        </mxCell>
        <mxCell id="aXbR5dEZh_eKK9XRqnal-61" value="Мать" style="rounded=1;arcSize=10;whiteSpace=wrap;html=1;align=center;" vertex="1" parent="1">
          <mxGeometry x="820" y="530" width="100" height="40" as="geometry" />
        </mxCell>
        <mxCell id="aXbR5dEZh_eKK9XRqnal-65" style="edgeStyle=orthogonalEdgeStyle;rounded=0;orthogonalLoop=1;jettySize=auto;html=1;exitX=0.5;exitY=0;exitDx=0;exitDy=0;entryX=0.5;entryY=1;entryDx=0;entryDy=0;" edge="1" parent="1" source="aXbR5dEZh_eKK9XRqnal-62" target="aXbR5dEZh_eKK9XRqnal-63">
          <mxGeometry relative="1" as="geometry" />
        </mxCell>
        <mxCell id="aXbR5dEZh_eKK9XRqnal-62" value="Отец" style="rounded=1;arcSize=10;whiteSpace=wrap;html=1;align=center;" vertex="1" parent="1">
          <mxGeometry x="690" y="530" width="100" height="40" as="geometry" />
        </mxCell>
        <mxCell id="aXbR5dEZh_eKK9XRqnal-67" style="edgeStyle=orthogonalEdgeStyle;rounded=0;orthogonalLoop=1;jettySize=auto;html=1;exitX=0.5;exitY=0;exitDx=0;exitDy=0;entryX=0;entryY=1;entryDx=0;entryDy=0;" edge="1" parent="1" source="aXbR5dEZh_eKK9XRqnal-63" target="aXbR5dEZh_eKK9XRqnal-60">
          <mxGeometry relative="1" as="geometry" />
        </mxCell>
        <mxCell id="aXbR5dEZh_eKK9XRqnal-63" value="is-a" style="shape=hexagon;perimeter=hexagonPerimeter2;whiteSpace=wrap;html=1;fixedSize=1;" vertex="1" parent="1">
          <mxGeometry x="700" y="450" width="80" height="40" as="geometry" />
        </mxCell>
        <mxCell id="aXbR5dEZh_eKK9XRqnal-69" style="edgeStyle=orthogonalEdgeStyle;rounded=0;orthogonalLoop=1;jettySize=auto;html=1;exitX=0.375;exitY=0;exitDx=0;exitDy=0;entryX=1;entryY=1;entryDx=0;entryDy=0;" edge="1" parent="1" source="aXbR5dEZh_eKK9XRqnal-64" target="aXbR5dEZh_eKK9XRqnal-60">
          <mxGeometry relative="1" as="geometry" />
        </mxCell>
        <mxCell id="aXbR5dEZh_eKK9XRqnal-64" value="is-a" style="shape=hexagon;perimeter=hexagonPerimeter2;whiteSpace=wrap;html=1;fixedSize=1;" vertex="1" parent="1">
          <mxGeometry x="830" y="455" width="80" height="40" as="geometry" />
        </mxCell>
        <mxCell id="aXbR5dEZh_eKK9XRqnal-70" value="Мать" style="rounded=1;arcSize=10;whiteSpace=wrap;html=1;align=center;" vertex="1" parent="1">
          <mxGeometry x="1170" y="380" width="100" height="40" as="geometry" />
        </mxCell>
        <mxCell id="aXbR5dEZh_eKK9XRqnal-71" value="Отец" style="rounded=1;arcSize=10;whiteSpace=wrap;html=1;align=center;" vertex="1" parent="1">
          <mxGeometry x="1030" y="380" width="100" height="40" as="geometry" />
        </mxCell>
        <mxCell id="aXbR5dEZh_eKK9XRqnal-72" value="Родительство" style="shape=rhombus;perimeter=rhombusPerimeter;whiteSpace=wrap;html=1;align=center;" vertex="1" parent="1">
          <mxGeometry x="1090" y="455" width="120" height="60" as="geometry" />
        </mxCell>
        <mxCell id="aXbR5dEZh_eKK9XRqnal-73" value="Человек" style="rounded=1;arcSize=10;whiteSpace=wrap;html=1;align=center;" vertex="1" parent="1">
          <mxGeometry x="1100" y="550" width="100" height="40" as="geometry" />
        </mxCell>
        <mxCell id="aXbR5dEZh_eKK9XRqnal-74" value="" style="endArrow=none;html=1;rounded=0;exitX=1;exitY=0.5;exitDx=0;exitDy=0;entryX=0.5;entryY=1;entryDx=0;entryDy=0;" edge="1" parent="1" source="aXbR5dEZh_eKK9XRqnal-72" target="aXbR5dEZh_eKK9XRqnal-70">
          <mxGeometry width="50" height="50" relative="1" as="geometry">
            <mxPoint x="1210" y="440" as="sourcePoint" />
            <mxPoint x="1260" y="390" as="targetPoint" />
          </mxGeometry>
        </mxCell>
        <mxCell id="aXbR5dEZh_eKK9XRqnal-76" value="" style="endArrow=none;html=1;rounded=0;entryX=0.5;entryY=1;entryDx=0;entryDy=0;exitX=0;exitY=0.5;exitDx=0;exitDy=0;" edge="1" parent="1" source="aXbR5dEZh_eKK9XRqnal-72" target="aXbR5dEZh_eKK9XRqnal-71">
          <mxGeometry width="50" height="50" relative="1" as="geometry">
            <mxPoint x="1110" y="440" as="sourcePoint" />
            <mxPoint x="1160" y="390" as="targetPoint" />
          </mxGeometry>
        </mxCell>
        <mxCell id="aXbR5dEZh_eKK9XRqnal-77" value="" style="endArrow=none;html=1;rounded=0;exitX=0.5;exitY=1;exitDx=0;exitDy=0;entryX=0.5;entryY=0;entryDx=0;entryDy=0;" edge="1" parent="1" source="aXbR5dEZh_eKK9XRqnal-72" target="aXbR5dEZh_eKK9XRqnal-73">
          <mxGeometry width="50" height="50" relative="1" as="geometry">
            <mxPoint x="1230" y="460" as="sourcePoint" />
            <mxPoint x="1280" y="410" as="targetPoint" />
          </mxGeometry>
        </mxCell>
        <mxCell id="aXbR5dEZh_eKK9XRqnal-78" value="1" style="text;strokeColor=none;fillColor=none;html=1;fontSize=24;fontStyle=1;verticalAlign=middle;align=center;" vertex="1" parent="1">
          <mxGeometry x="1060" y="420" width="20" height="40" as="geometry" />
        </mxCell>
        <mxCell id="aXbR5dEZh_eKK9XRqnal-79" value="1" style="text;strokeColor=none;fillColor=none;html=1;fontSize=24;fontStyle=1;verticalAlign=middle;align=center;" vertex="1" parent="1">
          <mxGeometry x="1220" y="415" width="20" height="40" as="geometry" />
        </mxCell>
        <mxCell id="aXbR5dEZh_eKK9XRqnal-80" value="n" style="text;strokeColor=none;fillColor=none;html=1;fontSize=24;fontStyle=1;verticalAlign=middle;align=center;" vertex="1" parent="1">
          <mxGeometry x="1150" y="510" width="30" height="40" as="geometry" />
        </mxCell>
        <mxCell id="aXbR5dEZh_eKK9XRqnal-81" value="&lt;h1&gt;Спроектируйте E/R-диаграмму для следующих кейсов:&lt;/h1&gt;" style="text;html=1;align=center;verticalAlign=middle;whiteSpace=wrap;rounded=0;" vertex="1" parent="1">
          <mxGeometry y="50" width="640" height="30" as="geometry" />
        </mxCell>
      </root>
    </mxGraphModel>
  </diagram>
</mxfile>
